<?xml version="1.0" encoding="UTF-8" standalone="no" ?>
<!DOCTYPE svg PUBLIC "-//W3C//DTD SVG 1.1//EN" "http://www.w3.org/Graphics/SVG/1.1/DTD/svg11.dtd">
<svg xmlns="http://www.w3.org/2000/svg" xmlns:xlink="http://www.w3.org/1999/xlink" version="1.1" width="640" height="480" viewBox="0 0 640 480" xml:space="preserve">
<defs>
</defs>
<g transform="matrix(1 0 0 1 7.51 9.37)"  >
<path style="stroke: none; stroke-width: 1; stroke-dasharray: none; stroke-linecap: butt; stroke-dashoffset: 0; stroke-linejoin: miter; stroke-miterlimit: 4; fill: rgb(255,255,255); fill-rule: nonzero; opacity: 1;"  transform=" translate(-11.76, -11.87)" d="M 4.97 13.22 a 0.75 0.75 0 0 1 1.06 0 L 11 18.19 V 3.75 a 0.75 0.75 0 0 1 1.5 0 v 14.44 l 4.97 -4.97 a 0.749 0.749 0 0 1 1.275 0.326 a 0.749 0.749 0 0 1 -0.215 0.734 l -6.25 6.25 a 0.75 0.75 0 0 1 -1.06 0 l -6.25 -6.25 a 0.75 0.75 0 0 1 0 -1.06 Z" stroke-linecap="round" />
</g>
</svg>